<svg width="720" height="480" viewBox="0 0 720 480" fill="none" xmlns="http://www.w3.org/2000/svg">
  <defs>
    <linearGradient id="g1" x1="0" y1="0" x2="1" y2="1">
      <stop offset="0%" stop-color="#10b981" stop-opacity="0.35"/>
      <stop offset="100%" stop-color="#3b82f6" stop-opacity="0.35"/>
    </linearGradient>
    <linearGradient id="g2" x1="0" y1="0" x2="1" y2="0">
      <stop offset="0%" stop-color="#e9fdf3"/>
      <stop offset="100%" stop-color="#eef2ff"/>
    </linearGradient>
    <filter id="shadow" x="-20%" y="-20%" width="140%" height="140%">
      <feDropShadow dx="0" dy="10" stdDeviation="12" flood-color="#000" flood-opacity="0.08"/>
    </filter>
  </defs>
  <rect x="0" y="0" width="720" height="480" fill="url(#g2)"/>
  <!-- Card -->
  <g filter="url(#shadow)">
    <rect x="80" y="60" rx="20" width="560" height="320" fill="#ffffff" stroke="#e5e7eb"/>
    <circle cx="170" cy="140" r="36" fill="#dcfce7"/>
    <rect x="220" y="120" rx="8" width="300" height="18" fill="#d1fae5"/>
    <rect x="220" y="148" rx="6" width="240" height="14" fill="#e5e7eb"/>
    <rect x="140" y="200" rx="12" width="440" height="30" fill="url(#g1)"/>
    <rect x="140" y="242" rx="6" width="280" height="14" fill="#e5e7eb"/>
    <g>
      <circle cx="525" cy="290" r="52" fill="#ecfeff" stroke="#bae6fd"/>
      <path d="M502 290 l18 18 l30 -36" stroke="#22c55e" stroke-width="8" fill="none" stroke-linecap="round"/>
    </g>
  </g>
  <!-- Decorative waves -->
  <path d="M0,430 C160,380 260,480 420,440 C560,405 620,460 720,420 L720,480 L0,480 Z" fill="url(#g1)" opacity="0.25"/>
</svg>
