<svg width="600" height="420" viewBox="0 0 600 420" fill="none" xmlns="http://www.w3.org/2000/svg">
  <defs>
    <linearGradient id="bg" x1="0" y1="0" x2="1" y2="1">
      <stop offset="0%" stop-color="#f0fdf4"/>
      <stop offset="100%" stop-color="#eff6ff"/>
    </linearGradient>
    <linearGradient id="accent" x1="0" y1="0" x2="1" y2="0">
      <stop offset="0%" stop-color="#10b981" stop-opacity="0.35"/>
      <stop offset="100%" stop-color="#3b82f6" stop-opacity="0.35"/>
    </linearGradient>
    <filter id="shadow" x="-20%" y="-20%" width="140%" height="140%">
      <feDropShadow dx="0" dy="8" stdDeviation="10" flood-color="#000" flood-opacity="0.08"/>
    </filter>
  </defs>
  <rect width="600" height="420" fill="url(#bg)"/>
  <g filter="url(#shadow)">
    <rect x="60" y="60" rx="18" width="480" height="260" fill="#fff" stroke="#e5e7eb"/>
    <!-- therapist -->
    <g>
      <circle cx="180" cy="150" r="28" fill="#dbeafe"/>
      <rect x="150" y="180" width="60" height="70" rx="12" fill="#eff6ff" stroke="#dbeafe"/>
    </g>
    <!-- patient -->
    <g>
      <circle cx="320" cy="170" r="24" fill="#dcfce7"/>
      <rect x="295" y="195" width="50" height="60" rx="12" fill="#f0fdf4" stroke="#bbf7d0"/>
    </g>
    <!-- chat bubbles -->
    <rect x="220" y="110" rx="10" width="200" height="24" fill="#e5f3ff"/>
    <rect x="120" y="230" rx="10" width="160" height="20" fill="#eafaf2"/>
    <rect x="260" y="260" rx="10" width="180" height="22" fill="#eef2ff"/>
    <rect x="120" y="130" rx="10" width="80" height="14" fill="#e2e8f0"/>
    <rect x="295" y="220" rx="10" width="70" height="14" fill="#e2e8f0"/>
    <rect x="230" y="300" rx="12" width="200" height="26" fill="url(#accent)"/>
  </g>
  <!-- decorative wave -->
  <path d="M0,370 C120,340 220,410 340,385 C470,358 520,395 600,372 L600,420 L0,420 Z" fill="url(#accent)" opacity="0.25"/>
</svg>
